# xmcd
#
# Track frame offsets:
#  150
#  13735
#  26180
#  38615
#  52692
#  63214
#  77108
#  89943
#  104816
#  118392
#  131719
#  144140
#  158888
#  172467
#  186496
#  201032
#  214291
#  229140
#  241790
#  255057
#  268422
#  279646
#  292941
#  307041
#  321518
#
# Disc length: 4495 seconds
#
# Revision: 0
# Processed by: cddbd v1.5.2PL0 Copyright (c) Steve Scherf et al.
# Submitted via: AltoMP3_Maker 3.0
#
DISCID=82118d19
DTITLE=Tampa Red and Georgia Tom - Music Making in Chicago 1928-1935, CD C
DYEAR=1900
DGENRE=
TTITLE0=Tommorow Blues GEORGIA TOM
TTITLE1=Billie the Grinder GEORGIA TOM
TTITLE2=Blue Moanin' Blues GEORGIA TOM
TTITLE3=Kunjine Baby
TTITLE4=That Stuff You Sell
TTITLE5=Station Time Blues
TTITLE6=Moanin' Heart Blues
TTITLE7=Chicago Moan Blues
TTITLE8=Black Hearted Blues
TTITLE9=But They Got It Fixed Right On
TTITLE10=Corinne Corrina No. 2
TTITLE11=The Dirty Dozen No. 2
TTITLE12=I.C. Moan blues
TTITLE13=Cryin' Shame Blues
TTITLE14=You Rascal You No. 1
TTITLE15=You Rascal You HOKUM JUG BAND
TTITLE16=She Can Love So Good HOKUM JUG BAND
TTITLE17=Bear Cat's Kitten
TTITLE18=Unhappy Blues
TTITLE19=Jealous Hearted Mama Blues
TTITLE20=They Call It Boogie Woogie
TTITLE21=Toogaloo Blues
TTITLE22=Jinx Doctor Blues
TTITLE23=Boogie Woogie Dance
TTITLE24=Bumble Bee Blues
EXTD=
EXTT0=
EXTT1=
EXTT2=
EXTT3=
EXTT4=
EXTT5=
EXTT6=
EXTT7=
EXTT8=
EXTT9=
EXTT10=
EXTT11=
EXTT12=
EXTT13=
EXTT14=
EXTT15=
EXTT16=
EXTT17=
EXTT18=
EXTT19=
EXTT20=
EXTT21=
EXTT22=
EXTT23=
EXTT24=
PLAYORDER=
